<svg width="229" height="42" viewBox="0 0 229 42" fill="none" xmlns="http://www.w3.org/2000/svg">
<path d="M29.3122 11.0548C29.3122 6.88083 21.4197 9.85982 19.6638 10.8794C17.6422 12.0532 15.7703 14.4167 18.0323 16.3703C19.8803 17.9662 22.5926 18.6858 24.8213 17.4754C26.9443 16.3225 27.817 14.164 29.435 12.546C29.5462 12.4347 29.9918 14.3169 30.1543 14.5984C31.1894 16.3926 33.0315 17.7277 35.1539 17.6333C36.4067 17.5776 37.7167 16.4503 38.8203 17.2474C39.6752 17.8648 40.5086 18.9672 41.4868 19.37C41.6971 19.4566 41.381 18.9229 41.2763 18.721C40.7387 17.6843 40.4135 16.6443 40.4518 15.458C40.6457 9.44635 46.719 9.61942 51.0651 9.45846C51.6284 9.4376 54.13 9.57325 54.2578 8.7743C54.6165 6.53228 55.0188 9.82271 55.0472 10.318C55.1767 12.5702 55.2632 14.7916 55.8367 16.9842C56.0058 17.6309 56.4254 19.1577 55.8367 17.686" stroke="white" stroke-width="3" stroke-linecap="round"/>
<path d="M48.2583 14.2125C54.8744 13.6049 61.5133 13.581 68.1516 13.581" stroke="white" stroke-width="3" stroke-linecap="round"/>
<path d="M84.8657 11.4829C85.4511 14.289 85.9519 17.1096 86.4802 19.9266C86.5161 20.1176 86.6986 22.4902 86.1823 22.023C83.1663 19.2937 79.6556 11.4804 85.1953 9.49286C88.1918 8.41771 91.7887 8.74629 94.7735 9.65379C95.9113 9.99976 100.25 11.8098 97.3071 13.1609C94.6464 14.3823 90.9491 14.1003 88.096 14.1004C86.3452 14.1005 85.4309 14.1228 87.3379 13.1449" stroke="white" stroke-width="3" stroke-linecap="round"/>
<path d="M101.266 12.3448C102.871 11.6945 101.753 11.7253 100.766 12.0825C99.4594 12.5552 97.8872 13.4548 97.2195 14.7377C95.5183 18.0063 102.67 17.8164 104.043 17.4924C106.217 16.9796 109.265 13.773 106.116 12.1904C104.755 11.5064 100.091 11.3579 101.613 11.4086" stroke="white" stroke-width="3" stroke-linecap="round"/>
<path d="M114.121 15.3004C114.012 16.9879 113.286 16.3008 112.404 15.2081C111.296 13.8347 109.773 11.3498 111.184 9.69116C113.886 6.51286 117.457 7.58015 120.307 9.81939" stroke="white" stroke-width="3" stroke-linecap="round"/>
<path d="M123.873 7.09463C121.098 6.03638 122.589 15.6058 122.897 16.8915C123.618 19.9004 123.802 18.7061 123.873 16.5729" stroke="white" stroke-width="3" stroke-linecap="round"/>
<path d="M119.549 13.5855C123.135 13.27 126.738 13.3856 130.311 12.996" stroke="white" stroke-width="3" stroke-linecap="round"/>
<path d="M141.062 3.24375C139.315 2.49983 137.414 1.62058 135.673 2.71329C132.83 4.49873 131.099 6.83688 131.311 10.3613C131.511 13.6667 132.661 16.7557 132.601 20.1282C132.575 21.591 132.435 19.5247 132.32 19.0658" stroke="white" stroke-width="3" stroke-linecap="round"/>
<path d="M130.237 15.2051C134.623 14.6764 139.035 14.3816 143.413 13.8008C144.139 13.7046 146.07 13.226 144.36 13.8499C141.261 14.9802 139.707 17.3176 143.768 18.4464C146.398 19.1775 151.063 19.3705 151.024 15.5813C150.984 11.592 144.845 11.4347 142.04 11.8068" stroke="white" stroke-width="3" stroke-linecap="round"/>
<path d="M154.895 5.28405C154.136 9.6373 154.902 14.5589 154.77 18.5494" stroke="white" stroke-width="3" stroke-linecap="round"/>
<path d="M160.334 12.7318C160.571 14.5179 160.727 19.9186 160.787 18.1179" stroke="white" stroke-width="3" stroke-linecap="round"/>
<path d="M161.123 8.01894L163.364 7.14571" stroke="white" stroke-width="3" stroke-linecap="round"/>
<path d="M176.829 10.7535C177.373 9.88848 177.122 9.75082 176.123 9.81724C173.187 10.0125 170.006 11.2255 167.364 12.4569C161.898 15.0045 170.88 17.2799 172.986 17.5762C175.317 17.9042 177.322 17.6995 179.442 16.6152C180.905 15.8675 183.727 13.9925 182.67 11.9309C181.291 9.24094 174.672 8.69968 172.137 9.33349" stroke="white" stroke-width="3" stroke-linecap="round"/>
<path d="M3.22229 30.0221C0.173628 31.5655 3.88621 31.5619 5.50251 31.6949C11.1381 32.1585 16.8815 31.9094 22.5268 31.9074C57.3652 31.8952 92.2332 33.7785 127.056 34.748C147.414 35.3148 167.753 35.9819 188.116 36.4091C192.855 36.5086 207.073 36.582 202.334 36.6792" stroke="white" stroke-width="3" stroke-linecap="round"/>
<path d="M197.199 32.6786C197.048 32.634 196.588 32.5262 196.74 32.5652C198.132 32.9213 199.737 32.9458 201.137 33.0541C207.612 33.5552 214.113 33.9522 220.499 35.2014C222.288 35.5514 225.079 35.7786 226.673 36.7944C227.026 37.0194 225.883 37.0848 225.47 37.1525C223.646 37.4512 221.804 37.6344 219.975 37.8968C217.308 38.2793 214.849 38.9824 212.294 39.8088C210.395 40.4231 211.269 38.1443 210.968 36.7654C210.533 34.7683 209.64 32.8868 208.417 31.2555C207.583 30.1447 207.692 30.3706 208.538 31.1829" stroke="white" stroke-width="3" stroke-linecap="round"/>
</svg>
