<svg width="119" height="36" viewBox="0 0 119 36" fill="none" xmlns="http://www.w3.org/2000/svg">
<path d="M21.2952 8.36623C21.2248 5.89949 19.7954 4.58893 17.5592 3.52633C13.7903 1.73545 10.3939 3.40632 7.28501 5.75523C4.38175 7.9488 2.28868 11.7745 6.18117 14.31C10.088 16.8548 15.3232 14.9809 18.7267 12.5056C19.0082 12.3009 24.6754 6.82106 22.951 6.32838C21.486 5.90981 19.13 9.03996 19.13 10.2767C19.13 14.5938 32.2283 14.8119 32.3761 13.4821C32.4349 12.9523 29.4032 11.2176 29.0009 10.8286C26.9862 8.88113 28.2543 5.9197 30.0835 4.33298C33.9131 1.01092 38.0042 5.96201 42.6502 5.22454C44.0095 5.00878 43.255 3.04198 43.096 2.16776C42.8175 0.636037 43.0472 5.28507 43.1597 6.83784C43.3594 9.59369 43.9694 12.4684 45.8981 14.5647C47.3571 16.1507 46.8958 12.9901 46.8958 12.1872" stroke="white" stroke-width="3" stroke-linecap="round"/>
<path d="M36.5791 7.98413C44.9854 7.91996 53.3919 7.72749 61.7975 7.60204" stroke="white" stroke-width="3" stroke-linecap="round"/>
<path d="M2.19037 27.8532C21.8703 27.8532 41.5712 28.3797 61.2456 28.8084C69.5974 28.9904 78.1289 28.8149 86.464 29.5726C88.3857 29.7473 86.4972 29.3132 87.398 29.7637" stroke="white" stroke-width="3" stroke-linecap="round"/>
<path d="M88 26.1896C89.1344 25.1812 92.9679 26.1354 94.0286 26.1896C101.432 26.5682 108.951 26.6616 116.19 28.4397C118.945 29.1163 115.455 29.5274 114.45 29.7134C109.286 30.6684 104.1 31.2903 98.9747 32.473C97.7666 32.7518 93.4016 34.7381 93.3494 32.3881C93.3114 30.6808 93.5435 29.0272 93.7315 27.3359C93.7909 26.8013 94.4854 24.6714 94.1136 25.0433" stroke="white" stroke-width="3" stroke-linecap="round"/>
</svg>
