<svg width="312" height="178" viewBox="0 0 312 178" fill="none" xmlns="http://www.w3.org/2000/svg">
<path d="M158.227 0C132.574 0.0114193 107.953 9.26841 89.6694 25.7762C71.3857 42.284 60.9029 64.7211 60.48 88.2525C43.925 89.6832 28.564 96.5062 17.3853 107.394C6.20661 118.282 0.00966805 132.457 0 147.16C0.0089769 162.678 6.9086 177.574 19.2146 188.642C31.5206 199.71 48.2497 206.066 65.8032 206.343V206.384H66.9996H282.86C282.907 206.385 282.954 206.387 283 206.388C300.77 206.388 317.811 200.149 330.376 189.042C342.941 177.936 350 162.872 350 147.165C350 139.388 348.267 131.687 344.9 124.502C341.533 117.316 336.598 110.788 330.376 105.288C324.155 99.7891 316.769 95.4268 308.64 92.4506C300.511 89.4743 291.799 87.9425 283 87.9425C273.663 87.9564 264.431 89.6956 255.899 93.0483C255.966 91.9439 256.011 90.8384 256.034 89.7325C256.034 77.9488 253.504 66.2804 248.589 55.3937C243.674 44.5069 236.469 34.615 227.387 26.2826C218.305 17.9503 207.523 11.3407 195.656 6.83123C183.79 2.32179 171.071 1.08959e-06 158.227 0Z" fill="white"/>
</svg>
