<svg width="200" height="200" viewBox="0 0 200 200" fill="none" xmlns="http://www.w3.org/2000/svg">
<path d="M60.2978 129.777H75.1861V97.5186H120.844V118.61L149.628 90.0744L120.844 61.2903V82.6303H67.7419C65.5914 82.6303 63.8131 83.3333 62.4069 84.7395C61.0008 86.1456 60.2978 87.9239 60.2978 90.0744V129.777ZM100 200C98.0149 200 96.0711 199.669 94.1687 199.007C92.2663 198.346 90.6534 197.353 89.33 196.03L3.97022 110.67C2.64682 109.347 1.65426 107.734 0.992556 105.831C0.330852 103.929 0 101.985 0 100C0 98.0149 0.330852 96.0711 0.992556 94.1687C1.65426 92.2663 2.64682 90.6534 3.97022 89.33L89.33 3.97022C90.6534 2.64682 92.2663 1.65426 94.1687 0.992556C96.0711 0.330852 98.0149 0 100 0C101.985 0 103.929 0.330852 105.831 0.992556C107.734 1.65426 109.347 2.64682 110.67 3.97022L196.03 89.33C197.353 90.6534 198.346 92.2663 199.007 94.1687C199.669 96.0711 200 98.0149 200 100C200 101.985 199.669 103.929 199.007 105.831C198.346 107.734 197.353 109.347 196.03 110.67L110.67 196.03C109.347 197.353 107.734 198.346 105.831 199.007C103.929 199.669 101.985 200 100 200Z" fill="white"/>
</svg>
