<svg width="35" height="35" viewBox="0 0 35 35" fill="none" xmlns="http://www.w3.org/2000/svg">
<path fill-rule="evenodd" clip-rule="evenodd" d="M3 32V3H14V0H2C0.895431 0 0 0.89543 0 2V33C0 34.1046 0.89543 35 2 35H33C34.1046 35 35 34.1046 35 33V21H32V32H3Z" fill="white"/>
<path d="M34.5 2C34.5 1.17157 33.8284 0.500001 33 0.5L19.5 0.500001C18.6716 0.500001 18 1.17157 18 2C18 2.82843 18.6716 3.5 19.5 3.5H31.5V15.5C31.5 16.3284 32.1716 17 33 17C33.8284 17 34.5 16.3284 34.5 15.5L34.5 2ZM12.0607 25.0607L34.0607 3.06066L31.9393 0.939341L9.93934 22.9393L12.0607 25.0607Z" fill="white"/>
</svg>
