<svg width="51" height="40" viewBox="0 0 51 40" fill="none" xmlns="http://www.w3.org/2000/svg">
<path fill-rule="evenodd" clip-rule="evenodd" d="M33.1589 38.6189C33.2507 38.6189 33.3422 38.6185 33.4332 38.6176C30.8485 39.5134 28.0727 40 25.1832 40C22.2975 40 19.5252 39.5146 16.9434 38.6211C17.0356 38.6221 17.1284 38.6226 17.2217 38.6226C18.4798 38.8557 18.9419 38.0773 18.9419 37.4134C18.9419 37.1398 18.937 36.5785 18.9307 35.8494L18.9307 35.8487C18.9232 34.9806 18.9136 33.8748 18.9077 32.7335C11.9017 34.2541 10.4234 29.7677 10.4234 29.7677C9.27785 26.8623 7.62729 26.0897 7.62729 26.0897C5.34202 24.5296 7.79952 24.5621 7.79952 24.5621C10.3279 24.739 11.6599 27.1524 11.6599 27.1524C13.9059 30.9944 17.5511 29.8838 18.9882 29.242C19.2142 27.6174 19.8668 26.508 20.587 25.8803C14.9935 25.2456 9.11313 23.0898 9.11313 13.4582C9.11313 10.7138 10.0973 8.47147 11.7082 6.71073C11.4464 6.07802 10.5844 3.52141 11.9518 0.0590343C11.9518 0.0590343 14.0661 -0.616541 18.8785 2.63563C20.8877 2.07827 23.0424 1.79813 25.183 1.78856C27.3223 1.79813 29.4783 2.07744 31.4912 2.6348C36.2978 -0.617373 38.4096 0.0582018 38.4096 0.0582018C39.7803 3.52016 38.9184 6.07719 38.6569 6.70989C40.2716 8.47064 41.2487 10.713 41.2487 13.4573C41.2487 23.1119 35.3574 25.2372 29.7498 25.8599C30.6534 26.64 31.4583 28.1701 31.4583 30.5149C31.4583 32.7623 31.4453 34.7167 31.4366 36.0131L31.4366 36.014C31.4323 36.6573 31.4291 37.1384 31.4291 37.413C31.4291 38.0819 31.8828 38.8657 33.1589 38.6189ZM8.94972e-05 14.8847L5.84064e-06 14.7995L0 14.8168L8.94972e-05 14.8847ZM50.3664 14.7995L50.3663 14.8842L50.3664 14.8168L50.3664 14.7995ZM9.10642 25.8008C9.28574 25.8862 9.48257 25.8487 9.53804 25.7238L9.53762 25.7243C9.60142 25.5994 9.49717 25.4275 9.31368 25.3455C9.13144 25.2593 8.93419 25.2947 8.87998 25.4237C8.82076 25.549 8.92293 25.7193 9.10642 25.8008ZM10.0443 26.7432C10.2036 26.9193 10.4384 26.9709 10.5581 26.8598L10.5585 26.8602C10.6844 26.7474 10.6519 26.5151 10.4876 26.3378C10.3225 26.163 10.0948 26.1105 9.97049 26.2213C9.8483 26.3341 9.87916 26.5684 10.0443 26.7432ZM10.9884 28.0906C11.1444 28.3142 11.3971 28.4145 11.5514 28.3071C11.709 28.198 11.709 27.9291 11.5556 27.7023C11.3971 27.4808 11.1481 27.3838 10.9926 27.4912C10.8341 27.5982 10.8341 27.8667 10.9884 28.0906ZM12.2641 29.6104C12.4793 29.8172 12.7737 29.858 12.9113 29.7061L12.9121 29.7057C13.0594 29.5546 12.993 29.2657 12.7733 29.0634C12.5568 28.8578 12.2612 28.8153 12.1211 28.9677C11.983 29.1192 12.0443 29.4077 12.2641 29.6104ZM14.1582 30.7205C14.4439 30.8046 14.7266 30.7151 14.7879 30.5182C14.8471 30.318 14.6607 30.0891 14.3759 30.0033C14.0886 29.9138 13.8037 30.0066 13.7453 30.2052C13.687 30.4042 13.8734 30.6343 14.1582 30.7205ZM16.3154 31.0514C16.6144 31.0473 16.8563 30.8758 16.8492 30.6685L16.8496 30.6681C16.8496 30.4629 16.604 30.2964 16.305 30.3018C16.0039 30.3076 15.7671 30.477 15.7671 30.6864C15.77 30.8903 16.0139 31.0585 16.3154 31.0514ZM18.2971 30.8079C18.5945 30.7526 18.8025 30.5449 18.7667 30.343C18.7291 30.1378 18.4623 30.0162 18.1645 30.0674C17.8726 30.1211 17.6607 30.3288 17.6966 30.5361C17.7341 30.7363 18.0052 30.862 18.2971 30.8079Z" fill="white"/>
</svg>
