<svg width="40" height="40" viewBox="0 0 40 40" fill="none" xmlns="http://www.w3.org/2000/svg">
<path d="M0.659191 13.2753H8.94942V39.9496H0.659191V13.2753ZM4.80659 0C5.75744 4.31225e-07 6.68693 0.282018 7.47747 0.810376C8.26801 1.33873 8.88408 2.08969 9.24774 2.96825C9.61141 3.8468 9.70632 4.81348 9.52049 5.746C9.33465 6.67851 8.87642 7.53495 8.20374 8.20698C7.53107 8.87902 6.67419 9.33644 5.7415 9.52138C4.80881 9.70633 3.84223 9.61049 2.96402 9.24599C2.08581 8.88149 1.33544 8.2647 0.807833 7.47366C0.280228 6.68262 -0.00090339 5.75286 2.18086e-06 4.80201C0.00121551 3.52802 0.508158 2.30662 1.40944 1.4062C2.31072 0.505778 3.5326 -5.77775e-07 4.80659 0ZM14.1497 13.2753H22.0966V16.9375H22.2065C23.3143 14.8409 26.0151 12.6299 30.0481 12.6299C38.4436 12.6116 40 18.1369 40 25.301V39.9496H31.7098V26.9718C31.7098 23.8819 31.6548 19.9039 27.4022 19.9039C23.1495 19.9039 22.4262 23.2731 22.4262 26.7704V39.9496H14.1497V13.2753Z" fill="white"/>
</svg>
