<svg width="321" height="280" viewBox="0 0 321 280" fill="none" xmlns="http://www.w3.org/2000/svg">
<path d="M334.583 316.667C352.639 316.667 368.056 310.347 380.833 297.708C393.611 285.069 400 269.583 400 251.25C400 232.917 393.681 217.43 381.042 204.792C368.403 192.153 353.056 185.833 335 185.833L354.583 170.833H400V150H324.583L283.333 175L217.083 150H158.75L191.25 108.333H228.333V83.3333H178.75L142.917 129.583L89.1667 102.917V146.25H130L94.5833 192.083C89.8611 190.139 85.1389 188.68 80.4167 187.708C75.6945 186.736 70.8334 186.25 65.8334 186.25C47.5 186.25 31.9445 192.569 19.1667 205.208C6.3889 217.847 1.52588e-05 233.333 1.52588e-05 251.667C1.52588e-05 270 6.3889 285.417 19.1667 297.917C31.9445 310.417 47.5 316.667 65.8334 316.667C83.8889 316.667 99.2361 310.347 111.875 297.708C124.514 285.069 130.833 269.722 130.833 251.667C130.833 243.333 129.444 235.417 126.667 227.917C123.889 220.417 119.722 213.611 114.167 207.5L128.75 188.75L189.583 281.667H235.417L269.167 251.25C269.167 269.583 275.486 285.069 288.125 297.708C300.764 310.347 316.25 316.667 334.583 316.667ZM334.583 291.667C323.194 291.667 313.611 287.708 305.833 279.792C298.056 271.875 294.167 262.361 294.167 251.25C294.167 240.139 298.056 230.625 305.833 222.708C313.611 214.792 323.194 210.833 334.583 210.833C345.694 210.833 355.208 214.722 363.125 222.5C371.042 230.278 375 239.861 375 251.25C375 262.639 371.042 272.222 363.125 280C355.208 287.778 345.694 291.667 334.583 291.667ZM65.8334 291.667C54.4445 291.667 44.7917 287.778 36.875 280C28.9583 272.222 25 262.778 25 251.667C25 240.278 28.9583 230.625 36.875 222.708C44.7917 214.792 54.4445 210.833 65.8334 210.833C76.9445 210.833 86.3889 214.792 94.1667 222.708C101.944 230.625 105.833 240.278 105.833 251.667C105.833 262.778 101.944 272.222 94.1667 280C86.3889 287.778 76.9445 291.667 65.8334 291.667Z" fill="white"/>
</svg>
