<svg width="278" height="384" viewBox="0 0 278 384" fill="none" xmlns="http://www.w3.org/2000/svg">
<path d="M0 384V0H153.6C188.444 0 217.778 11.9111 241.6 35.7333C265.422 59.5556 277.333 88.8889 277.333 123.733C277.333 158.578 265.422 187.911 241.6 211.733C217.778 235.556 188.444 247.467 153.6 247.467H64V384H0ZM64 183.467H153.6C170.667 183.467 184.889 177.778 196.267 166.4C207.644 155.022 213.333 140.8 213.333 123.733C213.333 106.667 207.644 92.4445 196.267 81.0667C184.889 69.6889 170.667 64 153.6 64H64V183.467Z" fill="white"/>
</svg>
