<svg width="229" height="77" viewBox="0 0 229 77" fill="none" xmlns="http://www.w3.org/2000/svg">
<path d="M47.4858 26.2692C38.0027 25.6285 29.5259 27.4041 20.9036 31.438C13.0835 35.0965 23.6792 35.6615 27.0877 36.3298C32.2465 37.3414 37.403 38.3967 42.5016 39.6834C46.5084 40.6946 52.9058 41.5718 56.0389 44.6675C60.7449 49.3176 45.0278 54.2593 42.9016 54.9743C41.7177 55.3724 32.4217 57.578 32.841 57.1587C34.1837 55.816 36.3491 54.9259 37.9482 54.0205C42.3364 51.5362 46.6206 48.9564 50.5009 45.7136C52.7928 43.7982 58.9693 37.439 56.4081 38.9758C52.8221 41.1274 48.835 46.0331 47.6704 50.0209C46.3755 54.455 52.5298 53.7292 54.9313 52.913C59.0231 51.5223 64.2892 47.3186 62.346 42.2985C61.0936 39.0632 59.0267 44.569 59.054 45.7136C59.1497 49.7344 65.1499 49.1096 67.484 47.8673C73.2703 44.7875 75.7691 38.4344 76.437 32.2687C76.8466 28.4879 76.8448 24.6503 76.7139 20.8543C76.7132 20.8329 76.4052 12.6312 75.3602 13.4088C73.825 14.5513 73.3159 18.238 73.0527 19.7775C71.7599 27.3404 71.882 35.2748 71.9451 42.9139C72.0003 49.5891 72.2339 56.2673 73.2066 62.8813C73.773 66.7334 75.4529 70.5841 75.914 74.3879C76.0564 75.5625 74.1211 72.8388 73.2989 71.9882C71.1237 69.738 68.9605 67.4478 67.1148 64.9119C63.056 59.3352 61.1049 53.5321 64.2227 47.0366C65.911 43.5193 69.4634 35.5103 73.5142 34.0839C77.3796 32.7228 77.6183 43.9559 78.0061 45.7444C78.8378 49.5793 80.3001 51.8046 84.4363 50.7901C89.6352 49.5149 95.5462 47.5346 100.035 44.606C103.094 42.6098 105.957 40.2963 108.834 38.0528C112.583 35.1293 117.06 32.3839 120.279 28.8536C121.481 27.5353 118.556 27.9335 118.126 27.9306C113.777 27.901 109.223 27.9079 104.958 28.8536C95.3482 30.9844 87.2099 38.0712 81.0212 45.4059C79.8043 46.8483 71.4911 59.6555 78.4984 53.6821C85.1649 47.9992 93.1797 41.5683 97.6966 33.9608C101.981 26.745 86.4443 34.8333 85.2055 35.4376C70.0705 42.8205 55.2934 50.8794 39.9173 57.7741C31.8589 61.3874 23.6951 64.856 15.3656 67.8039C14.2928 68.1836 3.96918 72.6701 2.50526 69.9576C1.37977 67.8721 6.82107 64.2171 7.36636 63.835C20.2051 54.8392 36.4194 49.9033 51.0855 45.006C108.616 25.7951 168.256 14.4626 227.469 1.90219" stroke="#777086" stroke-width="3" stroke-linecap="round"/>
</svg>
