<svg width="738" height="834" viewBox="0 0 738 834" fill="none" xmlns="http://www.w3.org/2000/svg">
<path d="M169.328 826L170 822.64L180.208 814.64C181.061 813.957 181.723 813.36 182.192 812.848C182.683 812.336 183.024 811.856 183.216 811.408C183.408 810.939 183.504 810.459 183.504 809.968C183.504 809.221 183.227 808.624 182.672 808.176C182.117 807.728 181.296 807.504 180.208 807.504C179.312 807.504 178.448 807.707 177.616 808.112C176.805 808.517 176.08 809.093 175.44 809.84L171.952 807.312C172.869 806.075 174.117 805.083 175.696 804.336C177.275 803.589 179.035 803.216 180.976 803.216C182.555 803.216 183.931 803.483 185.104 804.016C186.277 804.528 187.184 805.232 187.824 806.128C188.485 807.024 188.816 808.059 188.816 809.232C188.816 810.107 188.656 810.96 188.336 811.792C188.016 812.624 187.483 813.477 186.736 814.352C186.011 815.205 184.987 816.144 183.664 817.168L175.28 823.664L174.448 821.776H187.12L186.288 826H169.328ZM200.683 826.384C199.019 826.384 197.579 826.053 196.363 825.392C195.168 824.709 194.24 823.739 193.579 822.48C192.918 821.2 192.587 819.675 192.587 817.904C192.587 815.877 192.864 813.979 193.419 812.208C193.995 810.437 194.795 808.88 195.819 807.536C196.843 806.171 198.07 805.115 199.499 804.368C200.95 803.6 202.539 803.216 204.267 803.216C205.931 803.216 207.36 803.557 208.555 804.24C209.771 804.901 210.71 805.861 211.371 807.12C212.032 808.379 212.363 809.904 212.363 811.696C212.363 813.723 212.075 815.621 211.499 817.392C210.944 819.163 210.155 820.731 209.131 822.096C208.107 823.44 206.88 824.496 205.451 825.264C204.022 826.011 202.432 826.384 200.683 826.384ZM201.163 822C202.144 822 203.008 821.68 203.755 821.04C204.502 820.379 205.12 819.525 205.611 818.48C206.123 817.435 206.507 816.325 206.763 815.152C207.019 813.979 207.147 812.869 207.147 811.824C207.147 810.352 206.848 809.285 206.251 808.624C205.654 807.941 204.832 807.6 203.787 807.6C202.806 807.6 201.942 807.931 201.195 808.592C200.448 809.232 199.819 810.075 199.307 811.12C198.816 812.165 198.443 813.275 198.187 814.448C197.931 815.621 197.803 816.731 197.803 817.776C197.803 819.227 198.102 820.293 198.699 820.976C199.318 821.659 200.139 822 201.163 822ZM214.245 826L214.917 822.64L225.125 814.64C225.979 813.957 226.64 813.36 227.109 812.848C227.6 812.336 227.942 811.856 228.134 811.408C228.326 810.939 228.422 810.459 228.422 809.968C228.422 809.221 228.144 808.624 227.59 808.176C227.035 807.728 226.213 807.504 225.125 807.504C224.229 807.504 223.365 807.707 222.533 808.112C221.723 808.517 220.997 809.093 220.357 809.84L216.869 807.312C217.787 806.075 219.035 805.083 220.613 804.336C222.192 803.589 223.952 803.216 225.894 803.216C227.472 803.216 228.848 803.483 230.022 804.016C231.195 804.528 232.102 805.232 232.742 806.128C233.403 807.024 233.733 808.059 233.733 809.232C233.733 810.107 233.573 810.96 233.253 811.792C232.934 812.624 232.4 813.477 231.653 814.352C230.928 815.205 229.904 816.144 228.582 817.168L220.197 823.664L219.365 821.776H232.038L231.205 826H214.245ZM243.137 826.384C241.494 826.384 239.958 826.16 238.529 825.712C237.099 825.264 235.905 824.624 234.945 823.792L237.441 819.984C238.166 820.624 239.051 821.125 240.097 821.488C241.163 821.851 242.294 822.032 243.489 822.032C244.513 822.032 245.377 821.904 246.081 821.648C246.806 821.392 247.35 821.019 247.713 820.528C248.097 820.037 248.289 819.461 248.289 818.8C248.289 817.989 247.979 817.392 247.361 817.008C246.763 816.603 245.846 816.4 244.609 816.4H242.241L242.913 812.976L250.465 805.904L250.817 807.76H239.009L239.873 803.6H255.553L254.913 806.96L247.361 814.032L244.929 812.56H246.081C247.638 812.56 248.971 812.805 250.081 813.296C251.19 813.765 252.043 814.448 252.641 815.344C253.238 816.219 253.537 817.264 253.537 818.48C253.537 819.995 253.089 821.349 252.193 822.544C251.318 823.739 250.091 824.677 248.513 825.36C246.955 826.043 245.163 826.384 243.137 826.384ZM289.28 803.6H294.464L289.984 826H284.8L289.28 803.6ZM274.656 826H269.44L273.92 803.6H279.136L274.656 826ZM287.04 816.816H276.128L276.992 812.432H287.904L287.04 816.816ZM309.14 826.384C306.879 826.384 304.927 825.979 303.284 825.168C301.663 824.336 300.415 823.195 299.54 821.744C298.666 820.272 298.228 818.576 298.228 816.656C298.228 814.736 298.559 812.965 299.22 811.344C299.882 809.701 300.82 808.283 302.036 807.088C303.274 805.872 304.735 804.923 306.42 804.24C308.127 803.557 310.015 803.216 312.084 803.216C314.346 803.216 316.287 803.632 317.908 804.464C319.551 805.275 320.81 806.416 321.684 807.888C322.559 809.339 322.996 811.024 322.996 812.944C322.996 814.864 322.666 816.645 322.004 818.288C321.343 819.909 320.394 821.328 319.156 822.544C317.94 823.739 316.479 824.677 314.772 825.36C313.087 826.043 311.21 826.384 309.14 826.384ZM309.588 821.968C310.847 821.968 311.978 821.744 312.98 821.296C314.004 820.827 314.868 820.187 315.572 819.376C316.276 818.565 316.81 817.637 317.172 816.592C317.556 815.525 317.748 814.405 317.748 813.232C317.748 812.123 317.514 811.152 317.044 810.32C316.575 809.467 315.882 808.805 314.964 808.336C314.068 807.867 312.959 807.632 311.636 807.632C310.378 807.632 309.247 807.867 308.244 808.336C307.242 808.784 306.378 809.413 305.652 810.224C304.948 811.035 304.404 811.973 304.02 813.04C303.658 814.085 303.476 815.195 303.476 816.368C303.476 817.477 303.711 818.459 304.18 819.312C304.671 820.144 305.364 820.795 306.26 821.264C307.178 821.733 308.287 821.968 309.588 821.968ZM326.764 826L331.244 803.6H335.532L345.164 819.824L343.468 819.728L346.668 803.6H351.788L347.308 826H343.052L333.388 809.776L335.116 809.872L331.884 826H326.764ZM354.848 826L359.328 803.6H368.704C371.008 803.6 372.981 803.984 374.624 804.752C376.288 805.499 377.557 806.576 378.432 807.984C379.307 809.371 379.744 811.024 379.744 812.944C379.744 814.928 379.403 816.72 378.72 818.32C378.059 819.92 377.109 821.296 375.872 822.448C374.635 823.579 373.163 824.453 371.456 825.072C369.749 825.691 367.861 826 365.792 826H354.848ZM360.896 821.744H365.952C367.765 821.744 369.301 821.371 370.56 820.624C371.84 819.877 372.811 818.864 373.472 817.584C374.155 816.304 374.496 814.853 374.496 813.232C374.496 812.123 374.261 811.173 373.792 810.384C373.323 809.573 372.608 808.955 371.648 808.528C370.709 808.08 369.536 807.856 368.128 807.856H363.68L360.896 821.744ZM380.269 826L394.733 803.6H399.885L405.389 826H400.205L395.853 806.16H397.901L385.805 826H380.269ZM386.253 821.2L388.365 817.264H399.917L400.525 821.2H386.253ZM421.255 826L425.735 803.6H434.856C437.65 803.6 439.805 804.208 441.319 805.424C442.856 806.64 443.624 808.347 443.624 810.544C443.624 812.421 443.176 814.053 442.28 815.44C441.405 816.805 440.146 817.861 438.503 818.608C436.882 819.355 434.962 819.728 432.743 819.728H425.447L428.167 817.456L426.471 826H421.255ZM435.656 826L431.08 817.872H436.52L441.128 826H435.656ZM428.039 818.064L426.247 815.6H432.936C434.664 815.6 435.997 815.216 436.936 814.448C437.896 813.659 438.375 812.517 438.375 811.024C438.375 809.936 438.002 809.136 437.256 808.624C436.53 808.091 435.506 807.824 434.184 807.824H427.879L430.599 805.296L428.039 818.064ZM454.483 812.624H465.267L464.467 816.656H453.683L454.483 812.624ZM453.011 821.84H465.235L464.371 826H447.027L451.507 803.6H468.435L467.571 807.76H455.827L453.011 821.84ZM470.735 826L475.215 803.6H484.271C487.066 803.6 489.221 804.219 490.735 805.456C492.271 806.672 493.039 808.379 493.039 810.576C493.039 812.453 492.602 814.096 491.727 815.504C490.853 816.891 489.594 817.957 487.951 818.704C486.33 819.451 484.399 819.824 482.159 819.824H474.895L477.647 817.456L475.951 826H470.735ZM477.519 818.064L475.695 815.6H482.383C484.09 815.6 485.413 815.216 486.351 814.448C487.311 813.659 487.791 812.517 487.791 811.024C487.791 809.936 487.429 809.136 486.703 808.624C485.978 808.091 484.954 807.824 483.631 807.824H477.327L480.079 805.296L477.519 818.064ZM504.221 826.384C503.005 826.384 501.821 826.267 500.669 826.032C499.538 825.819 498.504 825.52 497.565 825.136C496.648 824.752 495.869 824.336 495.229 823.888L497.341 819.888C498.045 820.379 498.792 820.805 499.581 821.168C500.392 821.509 501.234 821.776 502.109 821.968C502.984 822.139 503.858 822.224 504.733 822.224C505.693 822.224 506.514 822.117 507.197 821.904C507.901 821.691 508.434 821.392 508.797 821.008C509.181 820.624 509.373 820.155 509.373 819.6C509.373 819.088 509.17 818.672 508.765 818.352C508.36 818.032 507.826 817.765 507.165 817.552C506.525 817.317 505.81 817.093 505.021 816.88C504.232 816.667 503.432 816.421 502.621 816.144C501.832 815.845 501.106 815.483 500.445 815.056C499.805 814.608 499.282 814.043 498.877 813.36C498.472 812.677 498.269 811.824 498.269 810.8C498.269 809.264 498.685 807.931 499.517 806.8C500.37 805.669 501.565 804.795 503.101 804.176C504.637 803.536 506.44 803.216 508.509 803.216C510.024 803.216 511.453 803.387 512.797 803.728C514.141 804.048 515.293 804.517 516.253 805.136L514.301 809.104C513.448 808.528 512.498 808.101 511.453 807.824C510.408 807.525 509.33 807.376 508.221 807.376C507.218 807.376 506.354 807.493 505.629 807.728C504.925 807.963 504.381 808.293 503.997 808.72C503.634 809.125 503.453 809.595 503.453 810.128C503.453 810.661 503.645 811.099 504.029 811.44C504.434 811.76 504.968 812.037 505.629 812.272C506.29 812.485 507.016 812.699 507.805 812.912C508.594 813.125 509.384 813.371 510.173 813.648C510.962 813.925 511.688 814.277 512.349 814.704C513.01 815.131 513.544 815.675 513.949 816.336C514.354 816.976 514.557 817.787 514.557 818.768C514.557 820.304 514.13 821.648 513.277 822.8C512.424 823.931 511.218 824.816 509.661 825.456C508.125 826.075 506.312 826.384 504.221 826.384ZM530.675 826.384C528.414 826.384 526.462 825.979 524.819 825.168C523.198 824.336 521.95 823.195 521.075 821.744C520.201 820.272 519.763 818.576 519.763 816.656C519.763 814.736 520.094 812.965 520.755 811.344C521.417 809.701 522.355 808.283 523.571 807.088C524.809 805.872 526.27 804.923 527.955 804.24C529.662 803.557 531.55 803.216 533.619 803.216C535.881 803.216 537.822 803.632 539.443 804.464C541.086 805.275 542.345 806.416 543.219 807.888C544.094 809.339 544.531 811.024 544.531 812.944C544.531 814.864 544.201 816.645 543.539 818.288C542.878 819.909 541.929 821.328 540.691 822.544C539.475 823.739 538.014 824.677 536.307 825.36C534.622 826.043 532.745 826.384 530.675 826.384ZM531.123 821.968C532.382 821.968 533.513 821.744 534.515 821.296C535.539 820.827 536.403 820.187 537.107 819.376C537.811 818.565 538.345 817.637 538.707 816.592C539.091 815.525 539.283 814.405 539.283 813.232C539.283 812.123 539.049 811.152 538.579 810.32C538.11 809.467 537.417 808.805 536.499 808.336C535.603 807.867 534.494 807.632 533.171 807.632C531.913 807.632 530.782 807.867 529.779 808.336C528.777 808.784 527.913 809.413 527.187 810.224C526.483 811.035 525.939 811.973 525.555 813.04C525.193 814.085 525.011 815.195 525.011 816.368C525.011 817.477 525.246 818.459 525.715 819.312C526.206 820.144 526.899 820.795 527.795 821.264C528.713 821.733 529.822 821.968 531.123 821.968ZM548.299 826L552.779 803.6H557.995L554.347 821.776H565.579L564.715 826H548.299Z" fill="#111111"/>
<path d="M386.605 558.5C413.273 551.335 704.381 489 707.605 501C710.829 513 420.273 584.335 393.605 591.5C366.936 598.665 60.7694 681.669 53.6047 655C47.8286 633.5 359.936 565.664 386.605 558.5Z" fill="#111111" fill-opacity="0.3"/>
<path fill-rule="evenodd" clip-rule="evenodd" d="M633.105 514C685.605 514 737.605 455.037 737.605 371.5C737.605 286.5 693.194 236 638.67 236C584.146 236 531.394 325.472 533.605 385.5C533.605 465.111 580.605 514 633.105 514ZM662.105 475C699.749 475 724.105 417.5 724.105 376C724.105 334.5 706.707 279 668.156 279C629.605 279 608.105 333.292 608.105 380C608.105 426.708 624.46 475 662.105 475Z" fill="#111111"/>
<path d="M596.105 281L620.105 252.5L630.81 280.498C632.324 284.458 634.629 288.067 637.585 291.105V291.105C646.39 300.155 652.241 311.664 654.362 324.111L657.104 340.194C658.097 346.019 660.114 351.621 663.062 356.741L668.105 365.5L564.105 355L528.105 352.5L521.605 307.5L596.105 281Z" fill="#111111"/>
<path d="M427.605 362L488.605 342.5L674.92 330.205C681.683 329.759 688.291 332.369 692.924 337.317V337.317C716.313 362.295 712.337 402.16 684.475 422.027L683.894 422.441C681.126 424.416 677.744 425.338 674.356 425.044L645.105 422.5L589.91 461.817C578.559 469.903 564.347 472.884 550.703 470.041L512.105 462L437.105 454.5L427.605 362Z" fill="#262626"/>
<path d="M234.105 118.5H443.92C456.373 118.5 467.532 126.193 471.96 137.833L482.105 164.5L485.572 161.644C488.801 158.985 492.934 157.679 497.105 158V158L505.605 149.5L541.925 104.206C545.939 99.2008 551.451 95.6141 557.653 93.9725L565.105 92L567.538 91.3241C571.896 90.1136 576.397 89.5 580.92 89.5H604.605L627.605 88.5L679.794 91.0253C684.857 91.2703 688.419 96.1025 687.155 101.011L685.274 108.311C682.514 119.029 677.993 129.215 671.896 138.452L664.605 149.5L645.871 217.019C642.394 229.553 636.504 241.287 628.533 251.566L604.408 282.675C603.231 284.193 601.641 285.34 599.83 285.978L533.105 309.5L510.605 338.5L234.105 118.5Z" fill="white"/>
<path fill-rule="evenodd" clip-rule="evenodd" d="M536.375 308.347L533.105 309.5L522.972 322.561L513.105 290L490.105 265.5L619.105 217L536.375 308.347Z" fill="#0A1743"/>
<path d="M488.605 249.5L571.605 214.75L623.105 196.5L630.413 193.531C636.195 191.182 641.744 188.297 646.988 184.914L654.605 180L636.105 203.5L515.605 256.5L492.605 267.5L488.605 266.5V249.5Z" fill="#E3192F"/>
<path d="M515.428 256.346C518.499 252.507 522.465 249.482 526.979 247.537L578.105 225.5L637.605 203L616.605 220.5L586.605 232L508.105 265.5L515.428 256.346Z" fill="white"/>
<path fill-rule="evenodd" clip-rule="evenodd" d="M657.106 176.527L645.871 217.019C642.394 229.553 636.504 241.287 628.533 251.566L604.408 282.675C603.231 284.193 601.641 285.34 599.83 285.978L535.369 308.702L545.105 290.5L554.16 277.42C557.119 273.147 560.406 269.11 563.992 265.348L582.399 246.035C586.859 241.356 591.762 237.12 597.04 233.388L618.733 218.044C626.278 212.707 633.046 206.35 638.846 199.155L657.105 176.5L657.106 176.527Z" fill="#262626"/>
<path d="M506.605 158L545.253 103.304C547.688 99.8565 551.152 97.2683 555.148 95.9096L566.172 92.1614C571.356 90.3991 576.793 89.5 582.268 89.5H600.224C608.117 89.5 615.982 90.4344 623.654 92.2836L632.66 94.4539C635.132 95.0498 636.763 97.4067 636.45 99.9306L633.481 123.853C631.915 136.475 627.697 148.623 621.105 159.5V159.5L506.605 158Z" fill="#F6A60E"/>
<path d="M637.105 159.75C636.773 159.833 636.522 159.452 636.73 159.18L637.575 158.07C641.824 152.493 644.248 145.74 644.515 138.734L645.955 100.936C646.047 98.5085 644.81 96.2233 642.727 94.9734V94.9734C641.569 94.2786 642.062 92.5 643.412 92.5H655.605L626.105 88.5L607.605 89.5H605.105H581.475C577.575 89.5 573.688 89.9563 569.894 90.8597L565.105 92L558.123 78.8585C557.304 77.3162 557.97 75.4026 559.57 74.7026L586.076 63.1064C587.505 62.481 589.175 63.0558 589.917 64.4283L598.605 80.5L605.105 89.5H607.605L601.605 81.5L590.434 63.0249C589.476 61.4404 590.168 59.3749 591.887 58.6872L601.092 55.005C602.52 54.434 604.148 55.0346 604.863 56.3959L612.165 70.3054C613.455 72.7618 614.996 75.0774 616.765 77.2147L626.105 88.5L655.605 92.5L659.026 85.6564C660.409 82.8914 661.532 80.0042 662.381 77.0318L663.777 72.1466C663.987 71.4102 664.472 70.7822 665.13 70.3912L680.105 61.5L681.105 57L686.605 50.5V50.5C687.253 53.095 687.034 55.8311 685.981 58.2897L672.605 89.5L683.807 91.9505C686.471 92.5332 688.176 95.1421 687.642 97.8156L686.605 103L667.566 113.879C664.228 115.787 662.279 119.439 662.553 123.274L663.105 131V131C665.664 134.199 666.835 138.29 666.357 142.359L666.105 144.5L646.556 155.903C643.603 157.626 640.421 158.921 637.105 159.75V159.75Z" fill="#E3192F"/>
<path d="M501.818 194.814C493.467 191.14 487.242 183.865 484.903 175.047L482.105 164.5V164.5C486.259 160.026 492.051 157.428 498.155 157.3L560.105 156L621.526 157.228C624.739 157.293 625.616 161.679 622.675 162.973L546.247 196.63C533.413 202.282 518.795 202.284 505.959 196.636L501.818 194.814Z" fill="#111111"/>
<path d="M488.105 246C508.15 295 434.488 258 396.105 258C357.721 258 270.605 217.242 270.605 183C274.605 131 402.605 117.903 438.105 134.5C473.605 151.097 470.309 202.5 488.105 246Z" fill="#F6A60E"/>
<path d="M237.105 118L397.09 181.291C411.626 187.041 424.899 195.577 436.162 206.418L459.105 228.5L489.605 264.5L515.55 290.851C519.506 294.869 522.25 299.921 523.466 305.427L527.197 322.314C529.793 334.062 530.965 346.08 530.69 358.108L529.622 404.747C529.61 405.246 529.524 405.741 529.367 406.214L523.764 423.022C523.664 423.323 523.427 423.558 523.126 423.657L497.673 431.987C496.96 432.22 496.253 431.613 496.376 430.872L499.791 410.385C500.665 405.137 501.12 399.827 501.15 394.507L501.605 313.5L460.605 256L461.588 253.296C462.214 251.573 461.848 249.645 460.632 248.273L448.943 235.076C437.518 222.177 423.449 211.889 407.694 204.913L371.738 188.994C367.996 187.338 364.066 186.147 360.035 185.448L329.775 180.203C329.164 180.097 328.605 180.568 328.605 181.188V183.536C328.605 184.507 328.463 185.472 328.185 186.402L311.105 243.5L237.105 118Z" fill="#8C8C8C"/>
<path d="M165.605 252.5L256.605 234L377.105 334.5L313.605 507.5L260.605 496L249.605 411L191.605 315.5L165.605 252.5Z" fill="#111111"/>
<path d="M171.105 251.5L314.605 259L354.105 397.5L325.605 475.5L262.105 466.5L225.105 350L171.105 251.5Z" fill="#262626"/>
<path d="M231.105 110L316.124 107.13C334.429 106.512 349.605 121.184 349.605 139.5V139.5L394.605 159V159C401.97 164.588 396.859 176.301 387.753 174.702L386.605 174.5L345.974 154.885C344.646 154.244 343.105 155.212 343.105 156.686V170.579C343.105 175.827 343.931 181.042 345.553 186.033L347.319 191.467C348.56 195.287 346.339 199.366 342.457 200.396L325.105 205H288.605L231.105 110Z" fill="#262626"/>
<path d="M149.605 249.5L127.105 247.5L160.105 194L273.105 166L275.156 170.493C280.573 182.359 290.412 191.638 302.574 196.351L323.605 204.5L463.605 257.5L493.655 296.438C497.268 301.12 500.169 306.311 502.264 311.842L510.075 332.461C511.051 335.039 510.92 337.905 509.713 340.383L502.105 356C495.753 367.342 483.904 379.696 472.996 386.768L457.554 396.78C449.694 401.876 446.424 411.744 449.686 420.525L457.343 441.142C460.802 450.455 471.152 455.205 480.468 451.754L544.605 428L529.605 464L530.624 467.785C532.238 473.78 531.952 480.129 529.805 485.955L529.605 486.5L491.605 497L301.842 536.935C295.376 538.296 288.694 538.264 282.241 536.84V536.84C273.075 534.817 266.023 527.483 264.362 518.244L259.105 489L299.605 496V496C305.57 489.703 310.54 482.534 314.345 474.74L332.227 438.103C343.459 415.091 346.311 388.882 340.291 363.993L327.738 312.097C320.64 282.749 297.202 260.158 267.612 254.144V254.144C258.958 252.385 250.163 251.415 241.334 251.247L149.605 249.5Z" fill="white"/>
<path fill-rule="evenodd" clip-rule="evenodd" d="M319.105 464.988L332.227 438.103C332.875 436.775 333.495 435.436 334.088 434.088L448.267 467.918C451.759 468.953 455.467 469.015 458.992 468.096L536.105 448V448.4L529.605 464L530.624 467.785C532.238 473.78 531.952 480.129 529.805 485.955L529.605 486.5L491.605 497L319.105 533.302V464.988Z" fill="#0A1743"/>
<path fill-rule="evenodd" clip-rule="evenodd" d="M323.565 532.364L301.842 536.935C295.376 538.296 288.694 538.264 282.241 536.84C273.075 534.817 266.023 527.483 264.362 518.244L259.105 489L299.605 496C305.57 489.703 310.54 482.534 314.345 474.74L320.318 462.501C320.582 462.5 320.844 462.5 321.105 462.5C348.605 467 363.605 469.5 351.105 500.5C345.156 515.252 335.182 525.474 323.565 532.364Z" fill="#FEC547"/>
<path fill-rule="evenodd" clip-rule="evenodd" d="M286.399 537.561C285.006 537.384 283.618 537.144 282.241 536.84C273.075 534.817 266.023 527.483 264.362 518.244L259.105 489L299.605 496C300.212 495.359 300.809 494.708 301.396 494.049C300.309 495.422 299.208 496.743 298.105 498C277.394 521.587 283.148 531.615 285.591 535.872C285.999 536.585 286.315 537.136 286.399 537.561Z" fill="black" fill-opacity="0.4"/>
<path fill-rule="evenodd" clip-rule="evenodd" d="M307.784 276.034C317.371 285.852 324.381 298.219 327.738 312.097L340.291 363.993C343.145 375.792 344.005 387.889 342.923 399.801C358.574 407.612 376.1 412 394.605 412C443.626 412 488.791 375.89 506.759 333.415L360.605 286L307.784 276.034Z" fill="#E3192F"/>
<path fill-rule="evenodd" clip-rule="evenodd" d="M450.648 450.476L440.392 447.111L439.346 448.815L441.483 449.49C442.247 449.731 442.432 450.728 441.804 451.227L434.112 457.336L432.146 456.716L431.787 458.256L440.077 461L440.436 459.46L437.618 458.316L438.888 456.948C439.168 456.646 439.605 456.547 439.988 456.698L446.896 459.426C447.2 459.546 447.426 459.807 447.501 460.124L447.873 461.681L445.482 460.799L444.861 462.764L455.543 466.391L455.737 464.164L453.345 463.281L450.648 450.476ZM445.76 452.839C445.674 452.478 445.237 452.334 444.953 452.573L441.939 455.102L446.723 456.867L445.76 452.839Z" fill="#E3192F"/>
<path fill-rule="evenodd" clip-rule="evenodd" d="M431.153 444.957L415.262 439.304L414.903 440.844L416.779 441.606C417.297 441.816 417.542 442.409 417.323 442.923L414.138 450.417C413.929 450.908 413.372 451.149 412.872 450.964L411.373 450.412L411.014 451.952L425.529 456.413C426.051 456.574 426.592 456.667 427.138 456.69L428.421 456.744C435.226 457.032 437.391 447.692 431.153 444.957ZM426.094 445.077L422.505 443.753L419.51 451.336C419.414 451.58 419.537 451.855 419.783 451.946L423.33 453.254C423.85 453.446 424.404 453.535 424.958 453.514C428.396 453.386 430.265 449.439 428.185 446.699L428.058 446.531C427.556 445.869 426.874 445.364 426.094 445.077Z" fill="#E3192F"/>
<path d="M388.577 443.724C389.086 443.884 389.632 443.617 389.817 443.116L392.681 435.351C392.868 434.845 392.619 434.282 392.119 434.079L390.198 433.299L390.557 431.759L400.387 434.862L405.409 446.748L407.604 439.794C407.765 439.285 407.497 438.739 406.997 438.555L405.499 438.002L405.858 436.463L413.722 438.945L413.363 440.485L411.955 439.966C411.419 439.768 410.827 440.058 410.655 440.603L407.247 451.398L400.333 448.325L396.163 436.962L393.368 444.039C393.162 444.561 393.426 445.15 393.952 445.344L395.384 445.873L395.025 447.412L387.162 444.93L387.521 443.39L388.577 443.724Z" fill="#E3192F"/>
<path fill-rule="evenodd" clip-rule="evenodd" d="M375.957 442.155C383.329 444.483 387.192 442.014 388.531 436.969C389.334 433.941 385.609 429.306 379.023 427.609C371.931 425.781 367.975 429.038 367.137 432.631C366.06 437.25 368.585 439.828 375.957 442.155ZM382.541 436.645C382.562 436.597 382.583 436.548 382.605 436.5C383.674 434.084 382.536 430.756 379.605 430C375.105 428.84 373.6 431.827 372.871 433.805C371.988 436.197 371.605 438.743 376.105 440C380.515 441.232 381.497 439.008 382.541 436.645Z" fill="#E3192F"/>
<path d="M345.408 419.285L355.5 421.962L354.879 423.928L353.155 423.632C352.633 423.542 352.131 423.875 352.011 424.39L351.507 426.552L358.945 428.773L359.664 426.199C359.809 425.679 359.516 425.138 359.002 424.976L357.959 424.646L358.579 422.68L368.67 425.358L368.05 427.324L366.279 427.019C365.777 426.933 365.29 427.238 365.149 427.728L363.073 434.952C362.928 435.455 363.196 435.985 363.688 436.166L365.208 436.727L364.588 438.693L354.758 435.59L355.379 433.624L356.315 433.919C356.87 434.095 357.457 433.76 357.59 433.193L358.063 431.165L350.625 428.944L350.107 431.164C349.993 431.655 350.262 432.154 350.735 432.329L352.299 432.906L351.678 434.872L341.161 431.933L341.782 429.967L343.587 430.277C344.075 430.361 344.55 430.076 344.706 429.606L346.876 423.051C347.045 422.539 346.778 421.985 346.273 421.799L344.788 421.251L345.408 419.285Z" fill="#E3192F"/>
<path fill-rule="evenodd" clip-rule="evenodd" d="M268.605 175L258.105 177.5V179.5L260.279 178.956C261.057 178.762 261.736 179.515 261.462 180.268L258.105 189.5L256.105 190L256.605 191.5L265.105 189.5L264.605 188L261.605 188.5L261.971 186.67C262.051 186.266 262.372 185.953 262.777 185.881L270.092 184.59C270.413 184.534 270.742 184.637 270.973 184.868L272.105 186L269.605 186.5L270.105 188.5L281.105 186L280.105 184L277.605 184.5L268.605 175ZM265.677 179.572C265.414 179.309 264.966 179.415 264.849 179.767L263.605 183.5L268.605 182.5L265.677 179.572Z" fill="#E3192F"/>
<path fill-rule="evenodd" clip-rule="evenodd" d="M249.105 180.5L232.605 184L233.105 185.5L235.102 185.167C235.653 185.075 236.173 185.453 236.255 186.005L237.463 194.058C237.542 194.585 237.194 195.082 236.671 195.187L235.105 195.5L235.605 197L250.308 193.206C250.837 193.069 251.346 192.865 251.824 192.599L252.946 191.974C258.895 188.658 255.851 179.566 249.105 180.5ZM244.856 183.25L241.105 184L242.522 192.029C242.567 192.288 242.816 192.458 243.073 192.406L246.78 191.665C247.325 191.556 247.842 191.342 248.304 191.034C251.166 189.125 250.693 184.784 247.487 183.538L247.291 183.461C246.516 183.16 245.672 183.087 244.856 183.25Z" fill="#E3192F"/>
<path d="M212.18 201.731C212.697 201.602 213.022 201.088 212.918 200.565L211.295 192.45C211.189 191.92 210.682 191.571 210.15 191.659L208.105 192L207.605 190.5L217.605 188L228.105 195.5L226.336 188.425C226.206 187.907 225.693 187.582 225.17 187.687L223.605 188L223.105 186.5L231.105 184.5L231.605 186L230.133 186.294C229.573 186.406 229.221 186.964 229.359 187.518L232.105 198.5L224.605 199.5L215.105 192L216.427 199.493C216.524 200.045 217.058 200.409 217.608 200.299L219.105 200L219.605 201.5L211.605 203.5L211.105 202L212.18 201.731Z" fill="#E3192F"/>
<path fill-rule="evenodd" clip-rule="evenodd" d="M200.605 207C208.105 205.125 210.105 201 208.605 196C207.705 193 202.105 191 195.605 193C188.605 195.154 186.938 200 188.105 203.5C189.605 208 193.105 208.875 200.605 207ZM199.605 205.5C203.105 204.5 204.105 201 203.105 198.5C202.105 196 200.105 194.077 197.105 195C194.105 195.923 193.191 199.433 193.605 201.5C194.104 204 196.105 206.5 199.605 205.5Z" fill="#E3192F"/>
<path d="M162.605 203.5L172.605 200.5L173.105 202.5L171.48 203.15C170.989 203.347 170.735 203.892 170.903 204.395L171.605 206.5L179.105 204.5L178.37 201.93C178.222 201.412 177.69 201.104 177.166 201.235L176.105 201.5L175.605 199.5L185.605 196.5L186.105 198.5L184.437 199.167C183.963 199.357 183.708 199.872 183.844 200.363L185.856 207.605C185.996 208.11 186.502 208.421 187.016 208.318L188.605 208L189.105 210L179.105 212.5L178.605 210.5L179.557 210.262C180.122 210.121 180.447 209.528 180.263 208.976L179.605 207L172.105 209L172.826 211.163C172.985 211.641 173.476 211.926 173.97 211.827L175.605 211.5L176.105 213.5L165.605 216.5L165.105 214.5L166.806 213.82C167.265 213.636 167.521 213.144 167.408 212.662L165.826 205.941C165.703 205.416 165.185 205.084 164.657 205.19L163.105 205.5L162.605 203.5Z" fill="#E3192F"/>
<path d="M482.605 282L489.105 290.5L480.12 308.942C479.85 309.497 480.141 310.161 480.732 310.338L483.466 311.158C484.061 311.337 484.351 312.008 484.073 312.563L481.488 317.733C481.268 318.174 480.758 318.389 480.288 318.237L469.296 314.704C468.139 314.332 467.578 313.022 468.108 311.928L482.605 282Z" fill="#111111"/>
<path fill-rule="evenodd" clip-rule="evenodd" d="M443.605 307C453.605 310.462 463.605 305 468.605 297C470.48 294 480.605 276.31 467.605 266C455.506 256.405 442.789 270.732 438.838 275.184C438.544 275.515 438.298 275.792 438.105 276C431.605 283 429.605 302.154 443.605 307ZM446.605 297C451.105 299 456.938 294.5 459.605 290.5C461.605 287.5 467.39 277 463.105 274C458.105 270.5 452.605 275 449.105 280C444.545 286.513 441.217 294.605 446.605 297Z" fill="#111111"/>
<path d="M395.924 281.988C396.891 280.269 398.967 279.511 400.815 280.204L405.472 281.95C407.833 282.836 410.484 281.824 411.655 279.591L421.684 260.473C423.949 256.157 428.995 254.102 433.631 255.608L444.436 259.12C445.039 259.316 445.309 260.017 444.995 260.567L442.859 264.305C442.134 265.573 440.602 266.135 439.229 265.636L434.82 264.033C432.421 263.161 429.751 264.234 428.625 266.524L418.906 286.276C416.721 290.716 411.617 292.89 406.901 291.39L394.275 287.372C393.671 287.18 393.396 286.482 393.707 285.929L395.924 281.988Z" fill="#111111"/>
<path fill-rule="evenodd" clip-rule="evenodd" d="M391.501 238.356C390.118 237.862 388.582 238.441 387.869 239.724L368.382 274.801C367.462 276.456 368.287 278.538 370.09 279.115L378.312 281.746C378.771 281.893 379.27 281.691 379.498 281.266L386.388 268.404C386.515 268.168 386.788 268.05 387.047 268.121L392.401 269.581C395.839 270.519 399.423 270.801 402.966 270.412C415.098 269.083 419.952 254.026 410.955 245.78C410.395 245.266 409.736 244.868 409.021 244.613L391.501 238.356ZM397.934 247.811C397.461 247.634 396.929 247.837 396.696 248.286L391.189 258.876C390.891 259.449 391.207 260.151 391.834 260.307L394.515 260.977C394.574 260.992 394.636 261 394.697 261H396.896C403.209 261 406.055 253.097 401.192 249.072C401.134 249.024 401.069 248.987 400.999 248.96L397.934 247.811Z" fill="#111111"/>
<path d="M355.538 229.849C356.751 227.884 359.151 227.005 361.345 227.721L380.976 234.131C381.565 234.324 381.839 235.001 381.549 235.55L379.153 240.075C378.255 241.772 376.277 242.591 374.442 242.027L365.365 239.234C364.92 239.097 364.439 239.286 364.206 239.689L359.726 247.427C359.407 247.978 359.678 248.684 360.286 248.88L371.862 252.601C372.489 252.802 372.753 253.543 372.396 254.096L369.709 258.248C368.47 260.162 366.093 260.996 363.93 260.275L354.829 257.242C354.401 257.099 353.931 257.26 353.681 257.636L348.854 264.876C348.481 265.435 348.755 266.195 349.399 266.388L361.939 270.15C362.542 270.331 362.83 271.019 362.535 271.576L360.518 275.387C359.405 277.489 356.965 278.516 354.684 277.843L332.247 271.222C330.241 270.63 329.441 268.218 330.696 266.545L343.105 250L355.538 229.849Z" fill="#111111"/>
<path fill-rule="evenodd" clip-rule="evenodd" d="M314.317 211.188C312.381 210.472 310.204 211.02 308.836 212.567L292.105 231.5L274.179 247.676C273.036 248.709 273.439 250.592 274.905 251.065L286.855 254.92C287.016 254.971 287.191 254.965 287.347 254.9C292.769 252.668 297.558 249.135 301.292 244.615L305.105 240L307.158 241.369C307.745 241.76 308.083 242.431 308.046 243.136L307.141 260.793C307.119 261.217 307.367 261.608 307.759 261.769L322.644 267.899C323.323 268.178 324.061 267.656 324.024 266.923L323.393 254.618C323.206 250.983 321.776 247.524 319.342 244.819C319.093 244.543 319.327 244.107 319.695 244.161L326.292 245.139C329.993 245.687 333.753 244.643 336.64 242.265C339.248 240.117 341.33 237.395 342.72 234.316C345.358 228.474 342.496 221.61 336.484 219.387L314.317 211.188ZM316.105 236C321.186 237.196 326.105 235.143 327.605 233C329.705 230 330.105 226 325.605 224C320.329 221.655 320.275 221.752 319.123 223.814C318.529 224.877 317.645 226.46 315.605 228.5C314.787 229.317 314.003 230.019 313.318 230.633C310.229 233.396 309.149 234.363 316.105 236Z" fill="#111111"/>
<path d="M159.105 253L175.105 266L162.605 307.5L141.105 304.5L159.105 253Z" fill="#111111"/>
<path fill-rule="evenodd" clip-rule="evenodd" d="M120.605 637.5C189.105 637.5 260.604 561 260.604 470C260.604 375.56 207.111 311 133.105 311C59.0985 311 -2.89547 415.5 0.104516 486C0.104516 579.5 52.1045 637.5 120.605 637.5ZM145.605 604C196.605 604 249.605 544 249.605 460.5C249.605 396.584 215.105 352.5 159.605 352.5C104.105 352.5 58.6047 429.221 58.6046 492.5C58.6046 555.779 94.6047 604 145.605 604Z" fill="#111111"/>
<path d="M39.0021 349.715C73.0061 305.431 131.024 287.059 184.32 303.7L214.105 313L233.605 254L262.605 266L182.605 494.5H170.105L158.858 493.202C150.686 492.259 144.798 484.911 145.659 476.731L149.648 438.837C149.939 436.071 151.369 433.552 153.593 431.884L154.639 431.099C155.585 430.39 156.249 429.367 156.513 428.214L160.105 412.5L166.899 382.153C167.328 380.234 166.593 378.241 165.019 377.061L147.163 363.669C140.927 358.992 133.46 356.239 125.68 355.748L92.0871 353.63C85.4487 353.211 78.7851 353.456 72.1953 354.36L43.9515 358.237C39.2349 358.884 36.1026 353.491 39.0021 349.715V349.715Z" fill="#111111"/>
<path d="M39.0021 349.715C73.0061 305.431 131.024 287.059 184.32 303.7L214.105 313L208.801 326.038C205.034 335.3 209.097 345.896 218.091 350.265V350.265C218.955 350.684 219.369 351.683 219.056 352.591L170.105 494.5L158.858 493.202C150.686 492.259 144.798 484.911 145.659 476.731L149.648 438.837C149.939 436.071 151.369 433.552 153.593 431.884L154.639 431.099C155.585 430.39 156.249 429.367 156.513 428.214L160.105 412.5L166.899 382.153C167.328 380.234 166.593 378.241 165.019 377.061L147.163 363.669C140.927 358.992 133.46 356.239 125.68 355.748L92.0871 353.63C85.4487 353.211 78.7851 353.456 72.1953 354.36L43.9515 358.237C39.2349 358.884 36.1026 353.491 39.0021 349.715V349.715Z" fill="#0A1743"/>
<path fill-rule="evenodd" clip-rule="evenodd" d="M75.6202 316.915C61.7496 325.314 49.2791 336.331 39.0021 349.715C36.1027 353.491 39.235 358.884 43.9515 358.237L72.1954 354.36C78.7852 353.456 85.4488 353.211 92.0872 353.63L108.887 354.689C109.287 353.53 109.5 352.145 109.5 350.5C109.5 334.208 101.121 315.5 84 315.5C81.4774 315.5 78.6344 316.004 75.6202 316.915Z" fill="#FEC547"/>
<path d="M55.5749 297.865C54.262 298.406 53.0025 296.989 53.6931 295.749L73.1722 260.758C76.7764 254.284 81.2626 248.342 86.5022 243.103L93.6047 236L109.105 243.5L88.1047 268L86.8169 277.015C86.0658 282.273 82.5902 286.741 77.6789 288.764L55.5749 297.865Z" fill="#111111"/>
<path d="M138.105 111.5L160.105 87.5L300.105 58V66.1015C300.105 70.8757 298.397 75.4925 295.29 79.1173L294.465 80.0801C292.231 82.6864 290.271 85.5159 288.617 88.5237L286.401 92.5526C285.886 93.489 285.065 94.22 284.075 94.6232L252.495 107.489C247.908 109.358 244.633 113.49 243.86 118.382V118.382C243.716 119.295 242.893 119.943 241.972 119.868L138.105 111.5Z" fill="#F6A60E"/>
<path d="M136.605 248.5L107.105 246.5H98.4745C95.9719 246.5 93.8547 244.65 93.5195 242.17L89.6807 213.762C86.1435 187.587 94.2833 161.179 111.943 141.537L133.105 118L176.105 116.5L259.491 149.364C260.559 149.785 261.546 150.386 262.41 151.142L267.502 155.598C268.559 156.522 269.409 157.659 269.997 158.933L275.105 170L217.105 182.5L171.054 196.356C164.391 198.361 158.865 203.051 155.805 209.299L136.605 248.5Z" fill="#E3192F"/>
<path d="M102.196 186.764C102.406 186.371 102.926 186.272 103.266 186.56L103.449 186.715C107.07 189.779 111.76 191.279 116.488 190.885L133.105 189.5L144.796 187.053C148.833 186.208 152.099 190.338 150.347 194.071L143.105 209.5L136.56 226.843C134.38 232.62 129.654 237.067 123.754 238.89L114.98 241.602C109.141 243.407 102.784 242.103 98.1276 238.144L97.7901 237.858C96.38 236.659 95.446 234.995 95.1574 233.167L94.7723 230.728C92.3925 215.656 94.9992 200.219 102.196 186.764V186.764Z" fill="black" fill-opacity="0.4"/>
<path d="M138.605 111L143.277 108.727C152.376 104.3 162.363 102 172.482 102V102C181.193 102 189.867 103.137 198.284 105.381L215.605 110L243.605 119.5V119.5C244.263 123.777 245.891 127.846 248.365 131.395L256.105 142.5L265.105 153L192.131 127.034C186.467 125.018 180.583 123.684 174.604 123.058L165.707 122.127C149.483 120.429 133.177 124.452 119.605 133.5V133.5L129.605 121L138.605 111Z" fill="white"/>
<path d="M197.158 104.206C196.798 104.397 196.387 104.474 195.982 104.426L178.121 102.293C168.274 101.117 158.291 102.482 149.121 106.258V106.258C148.23 106.625 147.409 105.607 147.955 104.814L177.105 62.5L215.605 9V9C226.224 3.53885 239.074 4.92327 248.286 12.5208L281.605 40L300.105 57.5L282.19 62.6571C272.161 65.5445 262.46 69.4708 253.245 74.3722L197.158 104.206Z" fill="#F6A60E"/>
<path opacity="0.2" d="M243.322 8.91328C243.743 9.22871 243.803 9.83673 243.452 10.2282L171.259 90.7852C165.234 97.5083 157.769 102.785 149.421 106.223L148.221 106.717C147.301 107.096 146.452 106.044 147.016 105.225L176.105 63L214.605 9.5L219.635 6.913C227.263 2.99019 236.461 3.76691 243.322 8.91328V8.91328Z" fill="#111111"/>
<path d="M299.105 75L298.002 75.2451C289.77 77.0743 281.803 79.9375 274.29 83.7663L233.605 104.5V104.5C223.34 107.708 212.231 106.813 202.611 102.003L201.605 101.5L237.059 78.455C246.684 72.1984 257.315 67.646 268.486 64.9973L300.105 57.5L304.046 63.4124C305.269 65.2459 305.147 67.6635 303.746 69.3645L299.105 75Z" fill="#0A1743"/>
<path fill-rule="evenodd" clip-rule="evenodd" d="M235.421 103.575L233.605 104.5C223.34 107.708 212.231 106.813 202.611 102.003L201.605 101.5L219.286 90.007C228.912 90.2061 236.605 94.6039 236.605 100C236.605 101.259 236.186 102.465 235.421 103.575Z" fill="#FEC547"/>
<path d="M128.417 240.542C127.524 239.946 128.069 238.553 129.129 238.722L171.605 245.5L204.105 248L267.605 293L273.105 286L211.606 244.355C210.868 243.855 211.103 242.713 211.978 242.545L246.105 236L290.392 266.509C290.82 266.804 291.019 267.335 290.889 267.839L287.943 279.314C284.044 294.501 272.069 306.289 256.822 309.948V309.948C256.68 309.982 256.531 309.979 256.39 309.938L224.192 300.644C213.541 297.569 203.476 292.745 194.408 286.369L144.105 251L128.417 240.542Z" fill="#111111"/>
<rect x="257.605" y="55.3442" width="30" height="10" transform="rotate(-14.1704 257.605 55.3442)" fill="white"/>
</svg>
